<svg xmlns="http://www.w3.org/2000/svg" viewBox="0 0 128 128" role="img" aria-labelledby="title">
  <title>SMILES2Docking Caffeine Icon</title>
  <rect x="8" y="8" width="112" height="112" rx="24" fill="#16324f"/>
  <rect x="20" y="20" width="88" height="88" rx="18" fill="#f7f3eb"/>
  <g transform="translate(64 64)">
    <polygon points="-24,-6 -10,-28 16,-28 28,-6 14,16 -12,16" fill="none" stroke="#20354d" stroke-width="5" stroke-linejoin="round"/>
    <polygon points="16,-28 36,-12 28,10 14,16" fill="none" stroke="#20354d" stroke-width="5" stroke-linejoin="round"/>
    <line x1="-10" y1="-28" x2="14" y2="16" stroke="#20354d" stroke-width="4" stroke-linecap="round"/>
    <line x1="-24" y1="-6" x2="28" y2="-6" stroke="#20354d" stroke-width="4" stroke-linecap="round"/>
    <line x1="-12" y1="16" x2="28" y2="10" stroke="#20354d" stroke-width="4" stroke-linecap="round"/>
    <circle cx="-30" cy="-24" r="7" fill="#d68216"/>
    <circle cx="42" cy="-18" r="7" fill="#d68216"/>
    <circle cx="8" cy="32" r="7" fill="#1f7a4f"/>
    <circle cx="-8" cy="-6" r="5.5" fill="#1f5f8b"/>
    <circle cx="22" cy="-6" r="5.5" fill="#1f5f8b"/>
    <circle cx="10" cy="11" r="5.5" fill="#1f5f8b"/>
  </g>
</svg>
